<?xml version="1.0" encoding="iso-8859-1"?>
<!-- Generator: Adobe Illustrator 16.0.0, SVG Export Plug-In . SVG Version: 6.00 Build 0)  -->
<!DOCTYPE svg PUBLIC "-//W3C//DTD SVG 1.1//EN" "http://www.w3.org/Graphics/SVG/1.1/DTD/svg11.dtd">
<svg id="Layer_1" data-name="Layer 1" xmlns="http://www.w3.org/2000/svg" viewBox="0 0 100 100">
	<title>icon-mask</title>
	<g>
		<path d="M73,26.05,51.06,41.67a1.65,1.65,0,0,1-2,0L27.16,26.05l6.47,6.34a.77.77,0,0,1,0,1.06,21.8,21.8,0,0,0,15,35.94,21.86,21.86,0,0,0,23-21.73A21.52,21.52,0,0,0,66.32,33.4a.75.75,0,0,1,.05-1Z" transform="translate(0 0)"/>
		<path d="M50,0a50,50,0,1,0,50,50A50,50,0,0,0,50,0Zm-.48,80.09A33,33,0,0,1,17,47.17a32.5,32.5,0,0,1,8.93-22.26.72.72,0,0,1,.57-.26H44.85a.71.71,0,0,1,.53.17l4.14,2.95a.75.75,0,0,0,1,0l4.13-2.95a1.42,1.42,0,0,1,.53-.17H73.5a.72.72,0,0,1,.57.26A32.46,32.46,0,0,1,83,47.31,32.91,32.91,0,0,1,49.52,80.09Z" transform="translate(0 0)"/>
	</g>
</svg>
