<?xml version="1.0" encoding="iso-8859-1"?>
<!-- Generator: Adobe Illustrator 16.0.0, SVG Export Plug-In . SVG Version: 6.00 Build 0)  -->
<!DOCTYPE svg PUBLIC "-//W3C//DTD SVG 1.1//EN" "http://www.w3.org/Graphics/SVG/1.1/DTD/svg11.dtd">
<svg id="Layer_1" data-name="Layer 1" xmlns="http://www.w3.org/2000/svg" viewBox="0 0 100 100">
	<defs>
		<style>
			.front-plugin-1 {
			fill: #ff5959;
			}

			.front-plugin-2 {
			fill: #fff;
			}
		</style>
	</defs>
	<title>icon</title>
	<circle class="front-plugin-1" cx="50" cy="50" r="50"/>
	<path id="Fill-1" class="front-plugin-2" d="M55.19,24.65a1.42,1.42,0,0,0-.53.17l-4.13,2.95a.73.73,0,0,1-1,0l-4.14-2.95a.71.71,0,0,0-.53-.17H26.5a.72.72,0,0,0-.57.26A32.5,32.5,0,0,0,17,47.17a33,33,0,0,0,66,.14,32.46,32.46,0,0,0-8.93-22.4.72.72,0,0,0-.57-.26Zm16.46,23a21.86,21.86,0,0,1-23,21.73,21.8,21.8,0,0,1-15-35.94.77.77,0,0,0,0-1.06l-6.47-6.33L49.08,41.67a1.65,1.65,0,0,0,2,0L73,26.06l-6.6,6.29a.75.75,0,0,0-.05,1A21.52,21.52,0,0,1,71.65,47.66Z" transform="translate(0 0)"/>
</svg>
